<svg width="360" height="130" viewBox="0 0 360 130" fill="none" xmlns="http://www.w3.org/2000/svg">
  <rect width="360" height="130" rx="24" fill="transparent"/>
  <rect x="18" y="24" width="82" height="82" rx="24" fill="#071B33"/>
  <circle cx="59" cy="65" r="30" fill="#FDFEFF"/>
  <path d="M43.5 69.5C50 61.5 68 61.5 74.5 69.5" stroke="#B31942" stroke-width="6.5" stroke-linecap="round"/>
  <path d="M48.5 55.5C55 48.5 66 48.5 72.5 55.5" stroke="#1E4E8C" stroke-width="6" stroke-linecap="round"/>
  <path d="M49 80.5C54.5 86 63.5 86 69 80.5" stroke="#071B33" stroke-width="6" stroke-linecap="round"/>
  <circle cx="42" cy="72" r="8" fill="#B31942"/>
  <circle cx="76" cy="72" r="8" fill="#B31942"/>
  <circle cx="59" cy="51" r="7.5" fill="#1E4E8C"/>
  <circle cx="59" cy="86" r="7.5" fill="#071B33"/>
  <circle cx="42" cy="72" r="3.5" fill="#FDFEFF"/>
  <circle cx="76" cy="72" r="3.5" fill="#FDFEFF"/>
  <circle cx="59" cy="51" r="3.3" fill="#FDFEFF"/>
  <circle cx="59" cy="86" r="3.3" fill="#FDFEFF"/>
  <text x="118" y="61" font-family="Arial, Helvetica, sans-serif" font-size="37" font-weight="800" fill="#071B33" letter-spacing="-1.3">Soldier</text>
  <text x="118" y="96" font-family="Arial, Helvetica, sans-serif" font-size="37" font-weight="800" fill="#B31942" letter-spacing="-1.3">Hub</text>
</svg>
