<svg width="441" height="171" viewBox="0 0 441 171" fill="none" xmlns="http://www.w3.org/2000/svg" role="img" aria-labelledby="title desc">
  <title id="title">SoldierHub logo</title>
  <desc id="desc">SoldierHub wordmark with navy lettering and red accent.</desc>
  <rect width="441" height="171" rx="32" fill="transparent"/>
  <g filter="url(#softShadow)">
    <rect x="24" y="34" width="103" height="103" rx="28" fill="#071B33"/>
    <path d="M75.5 52L105 64.5V86.5C105 105.2 92.8 120.9 75.5 126C58.2 120.9 46 105.2 46 86.5V64.5L75.5 52Z" fill="#FDFEFF" opacity="0.96"/>
    <path d="M75.5 60.5L96.5 69.3V86.2C96.5 100.1 88 112.2 75.5 116.8C63 112.2 54.5 100.1 54.5 86.2V69.3L75.5 60.5Z" fill="#B31942"/>
    <path d="M63.5 78.8C63.5 72.7 68.5 68.7 75.4 68.7C81.1 68.7 85.8 71.2 88.6 75.1L82.8 80C81.1 77.7 78.8 76.4 75.5 76.4C72.6 76.4 71 77.5 71 79.2C71 81.1 73.1 81.8 77.3 82.8C84.6 84.5 89.6 87.1 89.6 94.1C89.6 100.7 84.1 104.8 76.1 104.8C69.5 104.8 64 102.2 60.8 97.6L66.8 92.8C69.1 95.7 71.9 97 76 97C79.7 97 81.9 95.9 81.9 93.8C81.9 91.7 79.8 91 75 89.9C68.4 88.4 63.5 85.9 63.5 78.8Z" fill="#FDFEFF"/>
  </g>
  <g>
    <text x="145" y="80" font-family="Arial, Helvetica, sans-serif" font-size="46" font-weight="800" fill="#071B33" letter-spacing="-1.8">Soldier</text>
    <text x="303" y="80" font-family="Arial, Helvetica, sans-serif" font-size="46" font-weight="800" fill="#B31942" letter-spacing="-1.8">Hub</text>
    <text x="148" y="111" font-family="Arial, Helvetica, sans-serif" font-size="16" font-weight="700" fill="#43556B" letter-spacing="2.5">FORT BLISS COMMUNITY</text>
    <rect x="145" y="121" width="205" height="5" rx="2.5" fill="#B31942" opacity="0.92"/>
    <rect x="358" y="121" width="36" height="5" rx="2.5" fill="#1E4E8C" opacity="0.92"/>
  </g>
  <defs>
    <filter id="softShadow" x="14" y="24" width="123" height="123" filterUnits="userSpaceOnUse" color-interpolation-filters="sRGB">
      <feDropShadow dx="0" dy="6" stdDeviation="5" flood-color="#071B33" flood-opacity="0.16"/>
    </filter>
  </defs>
</svg>
